<svg xmlns="http://www.w3.org/2000/svg" viewBox="0 0 169 80"><defs><style>.cls-1{fill:#78849e;}.cls-2{fill:#42a5f5;}.cls-3{fill:#0d47a1;}.cls-4{fill:#08377c;}</style></defs><title>logo-flutter-dojo_1</title><g id="Camada_2" data-name="Camada 2"><g id="Camada_1-2" data-name="Camada 1"><g id="logo-flutter-dojo"><g id="name"><path id="Path_11" data-name="Path 11" class="cls-1" d="M84.7,43.45H77.3v23h7.4c7.81,0,12.62-4.31,12.62-11.43S92.51,43.45,84.7,43.45ZM80.41,63.94v-18h4.3c6.2,0,9.44,3.49,9.44,9.09s-3.24,9-9.44,9Zm43.71-9c0-6.89-5.21-11.73-11.93-11.73S100.25,48,100.25,54.92s5.25,11.73,11.94,11.73S124.12,61.8,124.12,54.92Zm-20.7,0c0-5.64,3.75-9.13,8.77-9.13S121,49.28,121,54.92,117.2,64,112.19,64s-8.77-3.52-8.77-9.12Zm33.63,5.5A3.21,3.21,0,0,1,133.6,64c-2.45,0-3.48-1.67-3.51-3.78H127c0,4,2.66,6.45,6.62,6.45s6.58-2.4,6.58-6.22v-17h-3.14ZM169,54.92c0-6.89-5.22-11.73-11.94-11.73S145.13,48,145.13,54.92s5.25,11.72,11.93,11.72S169,61.8,169,54.92Zm-20.7,0c0-5.64,3.75-9.13,8.76-9.13s8.77,3.49,8.77,9.13S162.08,64,157.06,64s-8.76-3.52-8.76-9.12Z"/><path id="Path_10" data-name="Path 10" class="cls-1" d="M77.3,34.4H80V25.46h7.33V23.35H80V16.66h9v-2.1H77.3Zm15,0H95V13.33H92.32Zm21.81-15.6h-2.71v8.57c0,3.36-1.88,5-4.68,5s-4.56-1.62-4.56-4.79v-8.8H99.5v9.15c0,4.47,3,6.69,6.7,6.69a6.08,6.08,0,0,0,5.22-2.54V34.4h2.71Zm5.18,11.33c0,3.13,1.64,4.27,4.53,4.27h2.45V32.21h-2c-1.67,0-2.27-.54-2.27-2.08v-9.2h4.26V18.8H122V14.87h-2.72V18.8H117.2v2.13h2.12Zm10.85,0c0,3.13,1.64,4.27,4.53,4.27h2.44V32.21h-2c-1.67,0-2.26-.54-2.26-2.08v-9.2h4.26V18.8h-4.26V14.87h-2.71V18.8H128v2.13h2.12Zm17.19-9.4c2.8,0,5.18,1.68,5.16,4.73H142.2a5,5,0,0,1,5.15-4.72ZM155,29.59h-2.92a4.5,4.5,0,0,1-4.59,2.88,5,5,0,0,1-5.29-4.77.57.57,0,0,1,0-.13h13.05a13.64,13.64,0,0,0,.09-1.57c0-4.27-3.1-7.46-7.84-7.46s-8.07,3.1-8.07,8a7.68,7.68,0,0,0,7.26,8.09q.41,0,.81,0C151.52,34.66,154.14,32.44,155,29.59Zm6.61-3.67c0-3.62,2-4.73,4.56-4.73h.72V18.51a5.59,5.59,0,0,0-5.28,2.82V18.8h-2.71V34.4h2.71Z"/></g><g id="flutter"><path id="Path_5" data-name="Path 5" class="cls-2" d="M12.19,52.32,0,40,39.59,0H64m0,36.91H39.59l-9.13,9.23L42.65,58.46"/><path id="Path_6" data-name="Path 6" class="cls-3" d="M30.46,70.77,39.59,80H64L42.65,58.46"/><path id="Path_7" data-name="Path 7" class="cls-2" d="M18.29,58.46l12.18-12.3,12.17,12.3L30.47,70.76Z"/><path id="Path_8" data-name="Path 8" class="cls-4" d="M30.47,70.76l12.17-12.3,1.7,1.72L32.17,72.48Z"/></g></g></g></g></svg>